<mxfile host="app.diagrams.net" agent="Mozilla/5.0 (Windows NT 10.0; Win64; x64) AppleWebKit/537.36 (KHTML, like Gecko) Chrome/133.0.0.0 Safari/537.36" version="26.0.11" pages="2">
  <diagram id="vZv2f6N4h2fVlUgS8-mH" name="Page-1">
    <mxGraphModel dx="947" dy="1100" grid="1" gridSize="10" guides="1" tooltips="1" connect="1" arrows="1" fold="1" page="1" pageScale="1" pageWidth="827" pageHeight="1169" math="0" shadow="0">
      <root>
        <mxCell id="0" />
        <mxCell id="1" parent="0" />
        <mxCell id="1oNx6LGX68mcEUHtxE3e-1" value="Program" style="swimlane;fontStyle=1;align=center;verticalAlign=top;childLayout=stackLayout;horizontal=1;startSize=26;horizontalStack=0;resizeParent=1;resizeParentMax=0;resizeLast=0;collapsible=1;marginBottom=0;" parent="1" vertex="1">
          <mxGeometry x="120" y="430" width="167" height="34" as="geometry">
            <mxRectangle x="330" y="1027" width="100" height="30" as="alternateBounds" />
          </mxGeometry>
        </mxCell>
        <mxCell id="1oNx6LGX68mcEUHtxE3e-3" value="" style="line;strokeWidth=1;fillColor=none;align=left;verticalAlign=middle;spacingTop=-1;spacingLeft=3;spacingRight=3;rotatable=0;labelPosition=right;points=[];portConstraint=eastwest;" parent="1oNx6LGX68mcEUHtxE3e-1" vertex="1">
          <mxGeometry y="26" width="167" height="8" as="geometry" />
        </mxCell>
        <mxCell id="1oNx6LGX68mcEUHtxE3e-5" value="1..*" style="endArrow=open;html=1;endSize=12;startArrow=diamondThin;startSize=14;startFill=0;edgeStyle=orthogonalEdgeStyle;align=left;verticalAlign=bottom;" parent="1" source="1oNx6LGX68mcEUHtxE3e-1" target="1oNx6LGX68mcEUHtxE3e-8" edge="1">
          <mxGeometry x="0.6078" y="7" relative="1" as="geometry">
            <mxPoint x="360" y="480" as="sourcePoint" />
            <mxPoint x="560" y="447" as="targetPoint" />
            <mxPoint as="offset" />
          </mxGeometry>
        </mxCell>
        <mxCell id="1oNx6LGX68mcEUHtxE3e-6" value="" style="group" parent="1" vertex="1" connectable="0">
          <mxGeometry x="440" y="387" width="180" height="120" as="geometry" />
        </mxCell>
        <mxCell id="1oNx6LGX68mcEUHtxE3e-7" value="+ method(type): type" style="text;strokeColor=none;fillColor=none;align=left;verticalAlign=top;spacingLeft=4;spacingRight=4;overflow=hidden;rotatable=0;points=[[0,0.5],[1,0.5]];portConstraint=eastwest;" parent="1oNx6LGX68mcEUHtxE3e-6" vertex="1">
          <mxGeometry y="60" width="180" height="50" as="geometry" />
        </mxCell>
        <mxCell id="1oNx6LGX68mcEUHtxE3e-8" value="«interface»&lt;br&gt;&lt;b&gt;Definition&lt;br&gt;&lt;br&gt;&lt;br&gt;&lt;br&gt;&lt;br&gt;&lt;/b&gt;" style="html=1;" parent="1oNx6LGX68mcEUHtxE3e-6" vertex="1">
          <mxGeometry width="180" height="120" as="geometry" />
        </mxCell>
        <mxCell id="1oNx6LGX68mcEUHtxE3e-9" value="" style="line;strokeWidth=1;fillColor=none;align=left;verticalAlign=middle;spacingTop=-1;spacingLeft=3;spacingRight=3;rotatable=0;labelPosition=right;points=[];portConstraint=eastwest;" parent="1oNx6LGX68mcEUHtxE3e-6" vertex="1">
          <mxGeometry y="50" width="180" height="8" as="geometry" />
        </mxCell>
        <mxCell id="1oNx6LGX68mcEUHtxE3e-34" value="+ getName(): String&#xa;+ getType(): Type" style="text;strokeColor=none;fillColor=none;align=left;verticalAlign=top;spacingLeft=4;spacingRight=4;overflow=hidden;rotatable=0;points=[[0,0.5],[1,0.5]];portConstraint=eastwest;" parent="1oNx6LGX68mcEUHtxE3e-6" vertex="1">
          <mxGeometry y="58" width="180" height="40" as="geometry" />
        </mxCell>
        <mxCell id="1oNx6LGX68mcEUHtxE3e-11" value="VarDefinition&#xa;" style="swimlane;fontStyle=1;align=center;verticalAlign=top;childLayout=stackLayout;horizontal=1;startSize=26;horizontalStack=0;resizeParent=1;resizeParentMax=0;resizeLast=0;collapsible=1;marginBottom=0;" parent="1" vertex="1">
          <mxGeometry x="300" y="585" width="167" height="34" as="geometry">
            <mxRectangle x="330" y="1027" width="100" height="30" as="alternateBounds" />
          </mxGeometry>
        </mxCell>
        <mxCell id="1oNx6LGX68mcEUHtxE3e-13" value="" style="line;strokeWidth=1;fillColor=none;align=left;verticalAlign=middle;spacingTop=-1;spacingLeft=3;spacingRight=3;rotatable=0;labelPosition=right;points=[];portConstraint=eastwest;" parent="1oNx6LGX68mcEUHtxE3e-11" vertex="1">
          <mxGeometry y="26" width="167" height="8" as="geometry" />
        </mxCell>
        <mxCell id="1oNx6LGX68mcEUHtxE3e-15" value="FuncDefinition" style="swimlane;fontStyle=1;align=center;verticalAlign=top;childLayout=stackLayout;horizontal=1;startSize=26;horizontalStack=0;resizeParent=1;resizeParentMax=0;resizeLast=0;collapsible=1;marginBottom=0;" parent="1" vertex="1">
          <mxGeometry x="550" y="585" width="167" height="34" as="geometry">
            <mxRectangle x="330" y="1027" width="100" height="30" as="alternateBounds" />
          </mxGeometry>
        </mxCell>
        <mxCell id="1oNx6LGX68mcEUHtxE3e-17" value="" style="line;strokeWidth=1;fillColor=none;align=left;verticalAlign=middle;spacingTop=-1;spacingLeft=3;spacingRight=3;rotatable=0;labelPosition=right;points=[];portConstraint=eastwest;" parent="1oNx6LGX68mcEUHtxE3e-15" vertex="1">
          <mxGeometry y="26" width="167" height="8" as="geometry" />
        </mxCell>
        <mxCell id="1oNx6LGX68mcEUHtxE3e-19" value="" style="endArrow=block;endSize=16;endFill=0;html=1;" parent="1" source="1oNx6LGX68mcEUHtxE3e-11" target="1oNx6LGX68mcEUHtxE3e-8" edge="1">
          <mxGeometry width="160" relative="1" as="geometry">
            <mxPoint x="337" y="540" as="sourcePoint" />
            <mxPoint x="497" y="540" as="targetPoint" />
          </mxGeometry>
        </mxCell>
        <mxCell id="1oNx6LGX68mcEUHtxE3e-20" value="" style="endArrow=block;endSize=16;endFill=0;html=1;" parent="1" source="1oNx6LGX68mcEUHtxE3e-15" target="1oNx6LGX68mcEUHtxE3e-8" edge="1">
          <mxGeometry width="160" relative="1" as="geometry">
            <mxPoint x="467" y="690" as="sourcePoint" />
            <mxPoint x="627" y="690" as="targetPoint" />
          </mxGeometry>
        </mxCell>
        <mxCell id="1oNx6LGX68mcEUHtxE3e-21" value="" style="group" parent="1" vertex="1" connectable="0">
          <mxGeometry x="40" y="190" width="180" height="120" as="geometry" />
        </mxCell>
        <mxCell id="1oNx6LGX68mcEUHtxE3e-22" value="+ method(type): type" style="text;strokeColor=none;fillColor=none;align=left;verticalAlign=top;spacingLeft=4;spacingRight=4;overflow=hidden;rotatable=0;points=[[0,0.5],[1,0.5]];portConstraint=eastwest;" parent="1oNx6LGX68mcEUHtxE3e-21" vertex="1">
          <mxGeometry y="60" width="180" height="50" as="geometry" />
        </mxCell>
        <mxCell id="1oNx6LGX68mcEUHtxE3e-23" value="«interface»&lt;br&gt;&lt;b&gt;ASTNode&lt;br&gt;&lt;br&gt;&lt;br&gt;&lt;br&gt;&lt;br&gt;&lt;br&gt;&lt;/b&gt;" style="html=1;" parent="1oNx6LGX68mcEUHtxE3e-21" vertex="1">
          <mxGeometry width="180" height="120" as="geometry" />
        </mxCell>
        <mxCell id="1oNx6LGX68mcEUHtxE3e-24" value="" style="line;strokeWidth=1;fillColor=none;align=left;verticalAlign=middle;spacingTop=-1;spacingLeft=3;spacingRight=3;rotatable=0;labelPosition=right;points=[];portConstraint=eastwest;" parent="1oNx6LGX68mcEUHtxE3e-21" vertex="1">
          <mxGeometry y="50" width="180" height="8" as="geometry" />
        </mxCell>
        <mxCell id="1oNx6LGX68mcEUHtxE3e-26" value="" style="endArrow=block;dashed=1;endFill=0;endSize=12;html=1;" parent="1" source="1oNx6LGX68mcEUHtxE3e-1" target="1oNx6LGX68mcEUHtxE3e-23" edge="1">
          <mxGeometry width="160" relative="1" as="geometry">
            <mxPoint x="110" y="387" as="sourcePoint" />
            <mxPoint x="270" y="387" as="targetPoint" />
          </mxGeometry>
        </mxCell>
        <mxCell id="1oNx6LGX68mcEUHtxE3e-27" value="" style="group" parent="1" vertex="1" connectable="0">
          <mxGeometry x="380" y="209" width="180" height="120" as="geometry" />
        </mxCell>
        <mxCell id="1oNx6LGX68mcEUHtxE3e-28" value="+ method(type): type" style="text;strokeColor=none;fillColor=none;align=left;verticalAlign=top;spacingLeft=4;spacingRight=4;overflow=hidden;rotatable=0;points=[[0,0.5],[1,0.5]];portConstraint=eastwest;" parent="1oNx6LGX68mcEUHtxE3e-27" vertex="1">
          <mxGeometry y="60" width="180" height="50" as="geometry" />
        </mxCell>
        <mxCell id="1oNx6LGX68mcEUHtxE3e-29" value="«interface»&lt;br&gt;&lt;b&gt;Locatable&lt;br&gt;&lt;br&gt;&lt;br&gt;&lt;br&gt;&lt;br&gt;&lt;/b&gt;" style="html=1;" parent="1oNx6LGX68mcEUHtxE3e-27" vertex="1">
          <mxGeometry width="180" height="120" as="geometry" />
        </mxCell>
        <mxCell id="1oNx6LGX68mcEUHtxE3e-30" value="" style="line;strokeWidth=1;fillColor=none;align=left;verticalAlign=middle;spacingTop=-1;spacingLeft=3;spacingRight=3;rotatable=0;labelPosition=right;points=[];portConstraint=eastwest;" parent="1oNx6LGX68mcEUHtxE3e-27" vertex="1">
          <mxGeometry y="50" width="180" height="8" as="geometry" />
        </mxCell>
        <mxCell id="1oNx6LGX68mcEUHtxE3e-31" value="+ getLine(): int&#xa;+ getColumn(): int" style="text;strokeColor=none;fillColor=none;align=left;verticalAlign=top;spacingLeft=4;spacingRight=4;overflow=hidden;rotatable=0;points=[[0,0.5],[1,0.5]];portConstraint=eastwest;" parent="1oNx6LGX68mcEUHtxE3e-27" vertex="1">
          <mxGeometry y="60" width="180" height="40" as="geometry" />
        </mxCell>
        <mxCell id="1oNx6LGX68mcEUHtxE3e-32" value="" style="endArrow=block;endSize=16;endFill=0;html=1;" parent="1" source="1oNx6LGX68mcEUHtxE3e-29" target="1oNx6LGX68mcEUHtxE3e-23" edge="1">
          <mxGeometry width="160" relative="1" as="geometry">
            <mxPoint x="280" y="259.5" as="sourcePoint" />
            <mxPoint x="340" y="310" as="targetPoint" />
          </mxGeometry>
        </mxCell>
        <mxCell id="1oNx6LGX68mcEUHtxE3e-33" value="" style="endArrow=block;dashed=1;endFill=0;endSize=12;html=1;" parent="1" source="1oNx6LGX68mcEUHtxE3e-8" target="1oNx6LGX68mcEUHtxE3e-29" edge="1">
          <mxGeometry width="160" relative="1" as="geometry">
            <mxPoint x="390" y="349" as="sourcePoint" />
            <mxPoint x="550" y="349" as="targetPoint" />
          </mxGeometry>
        </mxCell>
        <mxCell id="1oNx6LGX68mcEUHtxE3e-35" value="" style="group" parent="1" vertex="1" connectable="0">
          <mxGeometry x="630" y="200" width="180" height="120" as="geometry" />
        </mxCell>
        <mxCell id="1oNx6LGX68mcEUHtxE3e-36" value="+ method(type): type" style="text;strokeColor=none;fillColor=none;align=left;verticalAlign=top;spacingLeft=4;spacingRight=4;overflow=hidden;rotatable=0;points=[[0,0.5],[1,0.5]];portConstraint=eastwest;" parent="1oNx6LGX68mcEUHtxE3e-35" vertex="1">
          <mxGeometry y="60" width="180" height="50" as="geometry" />
        </mxCell>
        <mxCell id="1oNx6LGX68mcEUHtxE3e-37" value="«interface»&lt;br&gt;&lt;b&gt;Type&lt;br&gt;&lt;br&gt;&lt;br&gt;&lt;br&gt;&lt;br&gt;&lt;br&gt;&lt;/b&gt;" style="html=1;" parent="1oNx6LGX68mcEUHtxE3e-35" vertex="1">
          <mxGeometry width="180" height="120" as="geometry" />
        </mxCell>
        <mxCell id="1oNx6LGX68mcEUHtxE3e-38" value="" style="line;strokeWidth=1;fillColor=none;align=left;verticalAlign=middle;spacingTop=-1;spacingLeft=3;spacingRight=3;rotatable=0;labelPosition=right;points=[];portConstraint=eastwest;" parent="1oNx6LGX68mcEUHtxE3e-35" vertex="1">
          <mxGeometry y="50" width="180" height="8" as="geometry" />
        </mxCell>
        <mxCell id="1oNx6LGX68mcEUHtxE3e-42" value="" style="endArrow=block;endSize=16;endFill=0;html=1;" parent="1" source="1oNx6LGX68mcEUHtxE3e-37" target="1oNx6LGX68mcEUHtxE3e-23" edge="1">
          <mxGeometry width="160" relative="1" as="geometry">
            <mxPoint x="636.5" y="219.998247821878" as="sourcePoint" />
            <mxPoint x="300" y="225.861752178122" as="targetPoint" />
            <Array as="points">
              <mxPoint x="730" y="160" />
              <mxPoint x="520" y="160" />
              <mxPoint x="470" y="160" />
              <mxPoint x="210" y="160" />
            </Array>
          </mxGeometry>
        </mxCell>
        <mxCell id="1oNx6LGX68mcEUHtxE3e-43" value="*" style="endArrow=open;html=1;endSize=12;startArrow=diamondThin;startSize=14;startFill=0;edgeStyle=orthogonalEdgeStyle;align=left;verticalAlign=bottom;" parent="1" source="1oNx6LGX68mcEUHtxE3e-15" target="1oNx6LGX68mcEUHtxE3e-11" edge="1">
          <mxGeometry x="0.6867" y="-2" relative="1" as="geometry">
            <mxPoint x="430" y="680" as="sourcePoint" />
            <mxPoint x="590" y="680" as="targetPoint" />
            <mxPoint as="offset" />
          </mxGeometry>
        </mxCell>
        <mxCell id="1oNx6LGX68mcEUHtxE3e-44" value="" style="group" parent="1" vertex="1" connectable="0">
          <mxGeometry x="543.5" y="710" width="180" height="120" as="geometry" />
        </mxCell>
        <mxCell id="1oNx6LGX68mcEUHtxE3e-45" value="+ method(type): type" style="text;strokeColor=none;fillColor=none;align=left;verticalAlign=top;spacingLeft=4;spacingRight=4;overflow=hidden;rotatable=0;points=[[0,0.5],[1,0.5]];portConstraint=eastwest;" parent="1oNx6LGX68mcEUHtxE3e-44" vertex="1">
          <mxGeometry y="60" width="180" height="50" as="geometry" />
        </mxCell>
        <mxCell id="1oNx6LGX68mcEUHtxE3e-46" value="«interface»&lt;br&gt;&lt;b&gt;Statement&lt;br&gt;&lt;br&gt;&lt;br&gt;&lt;br&gt;&lt;br&gt;&lt;/b&gt;" style="html=1;" parent="1oNx6LGX68mcEUHtxE3e-44" vertex="1">
          <mxGeometry width="180" height="120" as="geometry" />
        </mxCell>
        <mxCell id="1oNx6LGX68mcEUHtxE3e-47" value="" style="line;strokeWidth=1;fillColor=none;align=left;verticalAlign=middle;spacingTop=-1;spacingLeft=3;spacingRight=3;rotatable=0;labelPosition=right;points=[];portConstraint=eastwest;" parent="1oNx6LGX68mcEUHtxE3e-44" vertex="1">
          <mxGeometry y="50" width="180" height="8" as="geometry" />
        </mxCell>
        <mxCell id="1oNx6LGX68mcEUHtxE3e-49" value="*" style="endArrow=open;html=1;endSize=12;startArrow=diamondThin;startSize=14;startFill=0;edgeStyle=orthogonalEdgeStyle;align=left;verticalAlign=bottom;" parent="1" source="1oNx6LGX68mcEUHtxE3e-15" target="1oNx6LGX68mcEUHtxE3e-46" edge="1">
          <mxGeometry x="0.7802" y="7" relative="1" as="geometry">
            <mxPoint x="560" y="612" as="sourcePoint" />
            <mxPoint x="477" y="612" as="targetPoint" />
            <mxPoint as="offset" />
          </mxGeometry>
        </mxCell>
        <mxCell id="Y6grScBhQkYPyEsvy2e9-3" value="1" style="endArrow=open;html=1;endSize=12;startArrow=diamondThin;startSize=14;startFill=0;edgeStyle=orthogonalEdgeStyle;align=left;verticalAlign=bottom;" edge="1" parent="1" source="1oNx6LGX68mcEUHtxE3e-8" target="1oNx6LGX68mcEUHtxE3e-37">
          <mxGeometry x="0.6867" y="-2" relative="1" as="geometry">
            <mxPoint x="560" y="612" as="sourcePoint" />
            <mxPoint x="477" y="612" as="targetPoint" />
            <mxPoint as="offset" />
          </mxGeometry>
        </mxCell>
      </root>
    </mxGraphModel>
  </diagram>
  <diagram id="bk84AN6vChEhuG9X8hu6" name="Statements">
    <mxGraphModel dx="1434" dy="830" grid="0" gridSize="10" guides="1" tooltips="1" connect="1" arrows="1" fold="1" page="0" pageScale="1" pageWidth="827" pageHeight="1169" math="0" shadow="0">
      <root>
        <mxCell id="0" />
        <mxCell id="1" parent="0" />
      </root>
    </mxGraphModel>
  </diagram>
</mxfile>
